<?xml version="1.0" encoding="utf-8"?>
<!-- Generator: Adobe Illustrator 22.1.0, SVG Export Plug-In . SVG Version: 6.00 Build 0)  -->
<svg version="1.1" id="Calque_1" xmlns="http://www.w3.org/2000/svg" xmlns:xlink="http://www.w3.org/1999/xlink" x="0px" y="0px"
	 viewBox="0 0 60 60" style="enable-background:new 0 0 60 60;" xml:space="preserve">
<style type="text/css">
	.st0{fill:#FFFFFF;}
</style>
<g>
	<g>
		<path class="st0" d="M15.8,28.5h1.7c0.1,0,0.2-0.1,0.2-0.2c0.1-1.3,1.2-2.3,2.5-2.4c0.1,0,0.3,0,0.4,0h5.8c0.1,0,0.3,0,0.4,0
			c1.3,0.1,2.4,1.1,2.5,2.4c0,0.1,0.1,0.2,0.2,0.2h0.9c0.1,0,0.2-0.1,0.2-0.2c0.1-1.3,1.2-2.3,2.5-2.4c0.1,0,0.3,0,0.4,0h5.8
			c0.1,0,0.3,0,0.4,0C41,26,42,27,42.2,28.3c0,0.1,0.1,0.2,0.2,0.2h1.9c0.1,0,0.2-0.1,0.2-0.2v-5.7c0-0.1-0.1-0.2-0.2-0.3
			c-4.2-2.1-9-3.2-14.1-3.3c-0.1,0-0.3,0-0.4,0c-5,0-9.8,1.2-14.1,3.3c-0.1,0-0.2,0.2-0.2,0.3v5.7C15.6,28.4,15.7,28.5,15.8,28.5z"
			/>
		<path class="st0" d="M46.4,30.9c-0.1-0.6-0.5-1-1.1-1.1c-0.1,0-0.3,0-0.4,0H15.1c-0.1,0-0.3,0-0.4,0c-0.6,0.1-1,0.5-1.1,1.1
			c0,0.1,0,0.3,0,0.4v4.5c0,0.1,0.1,0.2,0.2,0.2h32.4c0.1,0,0.2-0.1,0.2-0.2v-4.5C46.4,31.2,46.4,31,46.4,30.9z"/>
		<path class="st0" d="M46.1,37.4H13.7c-0.1-0.1-0.2,0-0.1,0.1v0.9c-0.1,0.1,0.1,0,0.1,0h2c0.1,0,0.2,0.1,0.2,0.2v2.2
			c0,0.1,0.1,0.2,0.2,0.2h2.2c0.1,0,0.2-0.1,0.2-0.2v-2.2c0-0.1,0.1-0.2,0.2-0.2H41c0.1,0,0.2,0.1,0.2,0.2v2.2
			c0,0.1,0.1,0.2,0.2,0.2h2.2c0.1,0,0.2-0.1,0.2-0.2v-2.2c0-0.1,0.1-0.2,0.2-0.2h2.1c0,0,0.2,0.1,0.3,0v-0.9
			C46.3,37.3,46.3,37.3,46.1,37.4z"/>
	</g>
</g>
</svg>
