<?xml version="1.0" encoding="utf-8"?>
<!-- Generator: Adobe Illustrator 23.0.1, SVG Export Plug-In . SVG Version: 6.00 Build 0)  -->
<svg version="1.1" id="Calque_1" xmlns="http://www.w3.org/2000/svg" xmlns:xlink="http://www.w3.org/1999/xlink" x="0px" y="0px"
	 viewBox="0 0 60 60" style="enable-background:new 0 0 60 60;" xml:space="preserve">
<style type="text/css">
	.st0{fill:#FFFFFF;}
</style>
<g>
	<path class="st0" d="M39.4,13.9c-3.4,1-4.8,5.6-4.8,13.6c0,4.3,2.8,1.8,2.5,4.9L35.9,44c-0.1,1.1,0.6,2.1,2.2,2.1
		c1.5,0,1.9-1,1.9-2.1V14.5C40.1,13.9,39.8,13.8,39.4,13.9z"/>
	<path class="st0" d="M28.3,14.6c0-0.4-0.4-0.7-0.8-0.7s-0.7,0.3-0.7,0.7v6.5c0,0.4-0.3,0.8-0.8,0.8h-0.3c-0.4,0-0.8-0.3-0.8-0.8
		v-6.5c0-0.4-0.3-0.7-0.6-0.7c-0.5,0-0.8,0.3-0.8,0.7v6.5c0,0.4-0.3,0.8-0.8,0.8h0.1c-0.4,0-0.8-0.3-0.8-0.8v-6.5
		c0-0.4-0.3-0.7-0.7-0.7c-0.5,0-0.7,0.2-0.8,0.7L20,22.4c-0.2,2.1,0.7,3.8,2.7,4.3c0.2,0.1,0.4,0.2,0.4,0.5l-1,16.8
		c-0.1,1.4,0.8,2.2,2.3,2.2s2.4-0.8,2.3-2.2l-0.8-16.8c0-0.3,0.2-0.5,0.4-0.5c2-0.5,2.9-2.2,2.7-4.3L28.3,14.6z"/>
</g>
</svg>
